<svg width="373" height="777" viewBox="0 0 373 777" fill="none" xmlns="http://www.w3.org/2000/svg">
<path d="M0 296.237V777H353.69C356.638 589.25 353.69 305.873 353.69 305.873L313 221.5L249.732 141H110.346C110.346 141 110.346 158.5 69.1117 193.032C27.877 227.565 0 296.237 0 296.237Z" fill="#B3E12C"/>
<path d="M119 91.5L108.5 170H256L248 91.5L265.5 75.5L256 33V1H102L91 33L108.5 43.5L102 65L119 91.5Z" fill="#74D072" stroke="black"/>
<path d="M239.435 19.1272C240.191 22.1182 240.083 22.492 236.411 24.4549C234.251 25.67 231.443 27.072 230.256 27.5393C228.312 28.474 228.096 29.3152 228.528 37.7274L228.852 46.9808L223.128 46.42C219.996 46.0462 216.648 45.2049 215.784 44.3637C214.272 43.1486 214.596 42.9617 218.16 42.9617C221.616 42.9617 222.156 42.6813 222.156 40.8119C222.156 39.6903 222.48 37.2601 222.804 35.3907L223.452 32.1193L216.108 32.7736C212.004 33.1475 208.224 33.2409 207.684 32.9605C207.252 32.6801 206.928 35.3907 207.252 39.1295L207.684 45.7657H198.18C190.729 45.7657 188.677 45.4853 188.677 44.4572C188.677 42.8682 190.945 42.027 195.157 42.027C198.396 42.027 199.476 40.625 199.476 36.4189C199.476 33.054 197.424 32.3997 188.893 33.2409L181.981 33.8952L182.413 40.3446L182.845 46.8874L174.745 46.2331C170.317 45.8592 159.842 45.6723 151.526 45.8592C130.574 46.2331 118.155 45.8592 117.075 44.9245C116.643 44.5507 118.371 43.616 121.071 42.9617C126.147 41.7466 126.471 41.3727 127.767 35.1103C128.415 31.9324 128.307 31.5585 126.471 32.0258C125.283 32.3062 122.367 32.7736 119.883 33.1475L115.347 33.8017L115.023 39.9707C114.699 45.7657 114.483 46.2331 112.107 46.5135C109.515 46.8874 109.515 46.8874 110.271 40.1576C110.811 34.5495 110.703 33.5213 109.407 33.8952C108.651 34.1756 107.355 33.8952 106.707 33.3344C105.087 31.9324 103.359 33.9887 103.359 37.3536C103.359 38.6621 102.927 41.1858 102.279 42.8682C100.875 47.0743 103.251 49.6914 108.111 49.3176C111.351 49.0372 111.459 49.1306 111.135 52.7759C110.919 54.8322 109.623 59.7861 108.111 63.8052C103.251 77.2647 105.303 83.0598 115.023 84.5553L119.559 85.2096V89.9765C119.559 97.0801 117.723 112.783 114.699 131.29C113.187 140.356 111.999 147.834 111.999 148.021C111.999 148.394 120.639 147.086 121.071 146.619C121.611 146.058 124.743 134 125.931 127.925C126.579 124.934 127.335 118.204 127.767 112.97C128.307 107.642 128.847 103.997 129.063 104.838C129.279 105.773 130.358 106.52 131.546 106.52C132.95 106.52 133.49 106.147 132.95 105.399C129.603 100.725 134.57 90.5373 139.646 91.7524C141.482 92.1263 147.638 90.4438 147.638 89.6026C147.638 89.1353 149.258 88.7614 151.31 88.7614C154.118 88.7614 155.09 89.2287 155.522 90.7242C156.17 92.7805 153.686 92.7805 197.64 91.0046C212.004 90.4438 210.816 89.7895 211.896 99.2299L212.652 105.586H217.188H221.832L222.696 110.913C223.128 113.904 223.884 119.232 224.424 122.877C224.964 126.429 225.72 131.383 226.044 133.813C226.476 137.178 227.124 138.3 228.42 138.3C229.824 138.3 229.932 138.487 228.852 139.141C227.664 139.795 227.664 139.982 228.96 140.45C230.795 141.01 232.091 145.59 230.579 145.964C230.04 146.151 232.091 146.432 235.223 146.525C243.431 146.805 244.079 148.208 236.627 149.423C233.063 150.077 228.204 150.918 225.72 151.385C223.236 151.946 214.488 152.32 206.28 152.414C196.992 152.414 192.133 152.787 193.537 153.255C195.265 153.909 194.725 154.096 191.269 154.096C188.893 154.19 186.301 153.629 185.545 152.974C184.357 152.04 184.141 152.133 184.789 153.068C185.437 153.909 183.925 154.096 178.201 153.722C174.205 153.348 169.453 153.535 167.617 154.096C165.349 154.657 173.125 155.031 193.537 155.031C209.628 155.124 226.692 155.405 231.443 155.685L240.191 156.339L241.487 160.639C242.243 162.976 243.215 166.621 243.755 168.677C244.187 170.734 245.159 172.509 245.807 172.696C246.455 172.883 246.995 173.725 246.995 174.566C246.995 176.902 253.475 188.025 256.499 190.829C259.091 193.259 259.091 193.446 257.147 193.446C255.851 193.54 256.499 194.101 259.307 195.316C261.575 196.344 263.734 196.998 264.166 196.811C264.49 196.624 266.002 196.811 267.406 197.279C269.026 197.839 269.674 198.587 269.242 199.615C268.918 200.363 269.026 200.737 269.674 200.457C270.214 200.176 271.186 200.924 271.942 202.046C272.698 203.261 274.102 204.85 275.29 205.691C276.37 206.532 277.234 207.56 277.234 208.028C277.234 208.495 278.422 210.084 280.042 211.486C281.554 212.888 282.526 214.383 282.202 214.757C281.986 215.131 282.634 215.599 283.822 215.599C285.982 215.785 285.982 215.692 283.714 213.262C255.419 180.735 251.423 172.696 243.647 132.224C240.839 117.737 239.975 88.1071 242.459 88.481C244.079 88.8549 244.187 86.7051 242.567 85.303C241.811 84.6488 242.675 84.1814 245.807 83.7141C250.667 83.0598 254.555 79.6014 254.555 75.9562C254.555 74.6476 252.827 68.7591 250.775 62.8705C245.807 48.6633 245.807 47.9155 251.099 48.3829C257.471 48.9437 258.011 47.7286 256.283 36.6993C254.231 24.1745 251.099 19.4076 243.431 16.8839C238.895 15.3884 238.463 15.5753 239.435 19.1272ZM157.358 56.4212C158.222 57.4493 158.33 60.0665 157.79 65.4877C157.25 71.2827 157.358 72.9652 158.33 72.4978C158.978 72.1239 159.302 70.9089 158.978 69.7872C158.762 68.6656 158.762 68.2917 159.086 68.8525C159.41 69.6003 161.678 70.0676 164.377 70.0676C166.969 70.0676 169.345 70.4415 169.669 70.9089C169.993 71.2827 169.021 71.4697 167.617 71.1893C165.889 70.9089 164.917 71.1893 164.917 71.937C164.917 72.6848 166.213 72.9652 168.589 72.6848C170.641 72.4978 172.045 72.6848 171.829 73.0586C171.505 73.4325 180.037 73.8064 190.621 73.8064C206.82 73.8064 210.276 74.0868 211.356 75.2084C212.328 76.1431 212.436 76.9843 211.68 77.6386C210.708 78.4798 167.293 78.9472 162.542 78.1059C161.138 77.8255 153.146 77.4517 144.614 77.1713C136.082 76.8909 128.739 76.4235 128.091 76.1431C125.931 74.928 128.631 73.6194 132.086 74.0868C135.002 74.5541 136.406 74.1803 138.458 72.4978C140.726 70.6284 141.158 69.5068 141.158 64.8334C141.158 55.393 141.482 55.1126 149.258 55.1126C153.794 55.1126 156.386 55.58 157.358 56.4212Z" fill="black"/>
<path d="M161.894 31.465C159.302 31.7454 158.006 32.4932 157.25 34.2691C156.062 36.9797 156.926 42.1205 158.87 43.1486C160.598 44.1768 168.589 44.0833 171.829 42.9617C174.313 42.2139 174.637 41.5597 174.637 37.5405C174.637 30.9042 173.341 30.2499 161.894 31.465Z" fill="black"/>
<path d="M134.678 34.7365C134.678 35.9516 134.354 38.4752 134.03 40.3446L133.274 43.8964H140.294C144.182 43.8964 147.746 43.4291 148.502 42.7748C149.258 42.1205 149.798 39.8773 149.798 37.7275C149.798 33.1475 148.934 32.6802 140.51 32.6802C135.218 32.6802 134.678 32.8671 134.678 34.7365Z" fill="black"/>
<path d="M115.239 150.17C111.243 150.825 110.055 152.04 110.055 155.405C109.947 160.078 106.275 168.958 99.0395 181.482C95.4756 187.838 93.5316 191.951 94.7196 190.642C95.9076 189.334 97.0955 187.558 97.5275 186.623C97.8515 185.782 98.6075 185.221 99.1475 185.502C99.6874 185.875 100.119 185.408 100.119 184.567C100.119 183.726 100.983 181.763 101.955 180.08C102.927 178.398 103.899 176.248 104.115 175.22C104.331 174.192 105.411 172.322 106.491 171.014C107.571 169.705 108.759 167.556 109.191 166.06C109.839 163.536 112.323 162.695 113.619 164.471C113.943 164.938 114.699 165.406 115.347 165.406C115.887 165.406 115.347 164.565 114.159 163.536C111.567 161.293 111.351 159.798 113.619 159.798C114.591 159.798 115.671 159.05 115.995 158.115C117.075 155.592 118.587 155.124 125.067 155.124C129.171 155.124 131.654 154.657 132.518 153.722C133.706 152.507 133.166 152.32 128.415 152.32C124.959 152.32 122.583 151.853 121.719 150.918C120.315 149.516 119.991 149.423 115.239 150.17Z" fill="black"/>
<path d="M292.354 225.693C292.354 226.441 291.922 227.095 291.274 227.095C290.734 227.095 290.194 228.03 290.194 229.058C290.194 230.74 290.734 231.021 293.434 230.647C295.162 230.367 296.458 230.46 296.134 230.647C295.81 230.927 296.566 231.675 297.753 232.423C299.049 233.171 299.589 234.292 299.157 235.227C298.617 236.349 298.833 236.536 299.913 235.975C300.993 235.414 301.209 235.601 300.669 236.722C300.237 237.751 300.561 238.311 301.425 238.311C302.289 238.311 303.153 239.433 303.477 240.835C304.125 243.639 303.369 245.789 301.965 245.789C301.317 245.789 301.425 245.041 302.073 244.013C302.829 242.704 302.829 241.957 302.073 241.583C301.425 241.209 300.993 241.302 301.101 241.77C301.425 243.452 300.993 244.948 300.237 244.574C299.697 244.293 298.833 244.667 298.077 245.322C296.998 246.256 297.106 246.63 298.293 247.098C299.157 247.378 300.669 247.378 301.533 247.098C302.613 246.724 303.153 247.098 303.261 248.219C303.261 249.247 303.477 251.117 303.693 252.612C304.017 254.388 303.693 254.949 302.829 254.482C302.073 254.201 302.397 254.762 303.585 255.884C304.665 257.005 305.313 258.501 304.881 259.342C304.557 260.183 304.665 260.557 305.313 260.277C305.961 259.996 306.393 260.277 306.393 261.024C306.393 261.772 307.257 262.987 308.229 263.641C309.741 264.67 309.849 264.67 309.201 263.735C308.553 262.8 308.877 262.52 310.173 262.8C312.873 263.174 313.521 265.417 311.037 265.511C309.309 265.511 309.309 265.604 311.253 266.352C312.441 266.819 312.873 267.193 312.225 267.193C310.173 267.287 309.849 270.465 311.685 271.96C312.549 272.708 313.521 273.269 313.629 273.082C314.817 272.241 315.033 273.175 313.953 274.297C312.333 275.979 313.413 278.877 315.141 277.942C316.005 277.475 316.113 277.662 315.681 278.41C315.141 279.064 314.169 279.344 313.305 279.064C312.441 278.783 312.117 279.064 312.549 279.999C312.873 280.653 313.629 281.307 314.169 281.307C314.817 281.307 315.033 282.055 314.817 282.99C314.493 284.018 314.817 284.765 315.681 284.765C316.437 284.765 316.869 284.392 316.545 283.924C315.897 283.083 317.625 282.896 318.597 283.737C319.677 284.672 318.165 286.915 316.869 286.261C316.113 285.887 316.005 286.261 316.653 287.476C317.085 288.411 317.517 290 317.625 290.841C317.733 291.776 318.165 292.804 318.597 293.084C319.029 293.458 319.353 294.58 319.353 295.608C319.353 296.729 319.893 297.197 320.865 296.916C321.729 296.636 322.809 297.384 323.565 298.786C324.753 301.029 324.645 301.122 323.133 300.001C322.269 299.347 321.189 299.066 320.865 299.347C319.893 300.188 321.513 301.87 324.105 302.805C325.941 303.459 325.941 303.646 324.537 303.646C323.241 303.74 322.593 304.487 322.593 306.17C322.593 307.852 323.025 308.32 323.997 307.759C324.645 307.385 324.429 308.32 323.241 309.722C322.161 311.217 321.945 312.058 322.701 311.684C323.673 311.124 323.781 311.404 323.241 312.713C322.701 313.647 322.161 315.33 321.837 316.358C321.405 317.947 321.513 318.04 322.593 316.825C323.565 315.704 323.673 315.984 323.133 318.227C322.809 319.723 322.377 321.873 322.269 322.901C322.161 323.929 321.297 324.77 320.217 324.77C319.245 324.77 318.057 325.144 317.517 325.611C317.085 326.079 317.193 326.172 318.057 325.798C318.705 325.424 319.353 325.518 319.353 326.079C319.353 326.639 320.001 326.826 320.865 326.546C321.729 326.266 322.593 326.826 322.917 327.948C323.241 329.07 323.025 329.911 322.485 329.911C321.945 329.911 321.513 329.443 321.513 328.789C321.513 327.387 320.109 328.696 319.785 330.378C319.677 331.126 319.893 331.593 320.433 331.313C320.865 331.032 321.513 331.5 321.945 332.248C322.269 333.182 321.837 333.65 320.541 333.65C319.461 333.65 318.597 334.304 318.597 335.052C318.597 335.986 319.029 336.173 319.893 335.519C320.649 335.052 321.513 334.865 321.837 335.239C323.241 336.36 322.593 340.286 320.973 340.753C320.109 341.127 319.677 341.688 320.001 342.155C320.325 342.623 319.461 342.996 318.057 343.09H315.573L318.057 343.931C319.353 344.398 320.433 345.053 320.433 345.333C320.433 345.707 320.001 345.707 319.569 345.427C319.029 345.146 318.057 346.455 317.409 348.231C316.329 351.502 316.329 351.502 318.273 350.007C319.353 349.165 320.973 348.605 321.729 348.885C322.701 349.259 322.485 349.446 321.297 349.446C320.325 349.539 319.137 350.38 318.813 351.409C318.381 352.437 317.733 353.091 317.193 352.811C316.653 352.53 315.897 352.717 315.573 353.278C315.141 353.839 315.465 354.119 316.329 354.026C317.301 353.839 317.625 354.68 317.409 356.736C317.301 358.793 317.625 359.821 318.597 359.821C319.353 359.821 320.109 360.942 320.217 362.345C320.325 363.747 320.865 365.055 321.405 365.336C323.565 366.644 324.861 370.476 324.213 373.467C323.781 375.524 323.997 376.645 324.753 376.645C325.401 376.645 325.725 377.019 325.401 377.486C325.077 377.86 325.725 378.982 326.913 379.917C329.289 381.786 329.937 384.59 327.777 383.655C327.021 383.282 329.613 385.805 333.716 389.17C338.36 393.096 341.816 395.339 343.436 395.339C344.84 395.339 346.46 395.806 347.216 396.461C348.728 397.769 349.916 395.619 349.376 392.348C349.16 390.666 348.296 390.105 345.596 389.918C339.44 389.357 339.332 388.796 339.656 365.055C340.304 321.966 336.74 297.384 326.913 277.101C324.537 271.96 322.053 266.819 321.405 265.604C320.865 264.389 319.893 263.735 319.353 264.015C318.813 264.296 318.597 263.922 318.921 263.174C319.245 262.426 317.085 257.753 313.953 252.799C308.337 243.733 293.974 224.291 292.894 224.291C292.57 224.291 292.354 224.945 292.354 225.693Z" fill="black"/>
<path d="M23.1177 297.851C21.9298 299.72 20.0938 308.88 19.1218 318.227C18.5819 323.835 18.0419 341.781 18.0419 357.951C18.0419 380.29 17.7179 387.768 16.7459 388.703C15.558 389.731 15.7739 389.824 17.5019 388.983C19.7698 387.955 24.8457 383.468 28.6256 379.075C30.1375 377.393 30.7855 375.617 30.4615 374.402C29.9215 373 30.0295 372.813 30.7855 373.654C31.6495 374.682 31.8655 374.682 32.4054 373.561C32.7294 372.813 32.0815 371.598 30.8935 370.757C29.8135 369.915 28.8416 368.046 28.8416 366.551C28.8416 365.149 28.3016 363.466 27.5456 362.812C26.5736 361.971 26.5736 361.69 27.5456 361.69C28.3016 361.69 28.8416 360.662 28.8416 359.353C28.8416 356.082 26.3576 348.231 25.0617 347.483C24.4137 347.016 24.5217 346.735 25.3857 346.735C26.1416 346.735 26.6816 345.427 26.6816 343.464C26.6816 340.847 26.2496 340.192 24.6297 340.192C23.0097 340.192 22.3617 340.94 22.0378 343.651C21.8218 345.614 21.6058 344.025 21.6058 340.192C21.4978 336.36 21.2818 332.341 21.0658 331.313C20.8498 330.098 21.2818 329.537 22.2537 329.724C23.4417 329.911 23.5497 329.724 22.6857 328.789C21.0658 327.107 19.7698 318.695 21.0658 318.695C21.7138 318.695 21.9298 317.76 21.6058 316.545C21.1738 314.862 21.2818 314.769 22.2537 315.89C23.1177 316.919 23.2257 315.61 22.7937 310.75C22.3617 307.104 22.5777 302.618 23.2257 300.655C24.3057 297.477 24.1977 296.262 23.1177 297.851Z" fill="black"/>
<path d="M181.009 354.96C182.737 357.765 182.521 359.821 179.497 370.944C173.665 392.068 172.369 395.9 170.209 398.423L167.941 401.041L174.637 400.76C180.685 400.48 181.009 400.386 179.065 399.171C176.365 397.676 176.041 392.254 178.309 387.394C179.713 384.59 180.469 384.123 183.493 384.123C185.437 384.123 187.597 384.497 188.245 384.87C189.973 385.899 192.133 396.461 190.837 397.582C188.353 399.732 189.757 400.947 194.94 400.947C197.748 400.947 204.984 401.601 211.032 402.536C221.724 404.032 222.156 404.032 225.936 402.256C231.227 399.919 234.575 395.713 234.467 391.6C234.467 387.207 231.119 381.412 227.447 379.543L224.424 377.954L227.555 376.926C229.931 376.178 230.795 375.15 231.335 372.626C231.767 370.85 231.767 368.42 231.335 367.298C230.471 364.868 224.748 359.167 221.94 357.858C219.888 356.923 201.42 354.026 200.88 354.587C200.664 354.774 201.636 356.176 203.148 357.671C205.74 360.288 205.74 360.756 206.064 379.73C206.28 391.694 206.064 399.171 205.416 399.265C203.904 399.545 198.072 383.655 190.945 360.101C189.325 354.774 189.001 354.213 186.301 354.213C184.789 354.213 182.629 353.932 181.657 353.558C180.037 353.091 179.929 353.278 181.009 354.96Z" fill="black"/>
<path d="M151.418 355.708C145.37 356.456 128.199 360.195 128.199 360.756C128.199 361.129 129.171 362.345 130.358 363.56C132.302 365.429 132.518 367.018 132.518 377.019V388.329L130.143 385.057C123.987 376.458 116.103 366.364 115.347 365.896C114.051 365.242 107.895 367.579 103.467 370.476C101.415 371.785 98.8234 372.906 97.7435 372.906C95.3675 372.906 95.2596 374.122 97.4195 375.711C98.8234 376.645 99.0394 380.384 99.0394 397.863V418.8L96.3395 421.043C94.9356 422.351 92.7756 423.38 91.5877 423.38C87.3758 423.38 86.7278 420.202 86.7278 399.825C86.6198 382.814 86.4038 380.664 84.9999 381.693C84.1359 382.347 81.328 383.655 78.736 384.59C74.6322 386.086 74.3082 386.459 75.8201 387.768C77.0081 388.983 77.5481 393.47 78.3041 405.714C79.168 420.482 79.492 422.538 81.868 426.184C83.2719 428.427 85.2159 430.67 86.1878 431.138C89.1037 432.726 95.3675 429.362 99.2554 424.034L102.819 419.174L103.359 396.741C103.683 384.403 104.439 373.561 104.871 372.626C105.411 371.691 106.599 371.037 107.571 371.224C109.083 371.504 109.407 374.215 110.055 392.535C110.703 412.35 110.595 413.752 108.651 416.089C105.411 420.108 106.167 420.576 111.999 418.426C117.507 416.276 118.371 415.248 116.103 413.285C114.807 412.163 111.783 382.253 112.971 382.253C113.835 382.253 116.427 385.618 119.235 390.198C123.771 397.769 135.434 411.229 135.866 409.266C135.866 409.079 136.082 398.61 136.298 385.992C136.406 373.374 136.946 362.345 137.378 361.41C137.918 360.382 139.106 359.821 140.51 360.008C142.778 360.288 142.778 360.662 142.886 379.449C142.886 396.367 142.67 399.078 140.942 402.256C139.754 404.219 139.106 405.994 139.322 406.275C139.646 406.462 144.506 405.527 150.23 404.125C159.734 401.882 161.03 401.228 164.917 397.489C170.425 391.974 173.773 384.403 173.989 376.645C174.097 371.598 173.557 369.635 170.857 364.962C166.213 356.923 161.246 354.587 151.418 355.708ZM158.762 361.503C163.621 366.083 165.565 380.104 162.65 389.264C161.462 392.815 155.522 399.078 153.146 399.078C152.282 399.078 151.958 393.096 151.958 379.449V359.821H154.442C155.846 359.821 157.79 360.569 158.762 361.503Z" fill="black"/>
<path d="M235.547 363.746C236.951 365.522 237.275 369.261 237.275 385.899C237.275 404.779 237.167 406.088 235.115 407.957L232.955 410.014L237.491 411.135C243.539 412.724 257.903 419.267 259.955 421.417C260.819 422.351 264.274 424.688 267.514 426.558L273.454 429.922L274.102 418.706C274.534 412.444 275.074 407.209 275.398 406.929C275.614 406.649 276.694 410.387 277.774 415.154C281.878 434.783 284.578 441.886 292.678 454.598C300.453 466.749 309.849 477.031 314.709 478.62C316.653 479.18 317.193 480.115 317.193 482.545C317.193 486.845 313.845 489.462 310.281 488.06C307.365 486.938 307.473 487.125 294.622 470.114C284.146 456.281 270.646 443.101 259.091 435.531C250.127 429.642 228.528 420.295 218.052 417.865C204.336 414.593 190.297 413.659 174.313 414.967C155.846 416.369 148.718 417.771 134.246 423.099C120.531 428.053 111.783 432.913 96.8795 443.849C92.9916 446.653 89.6437 449.083 89.4277 449.177C89.3197 449.364 89.4277 449.831 89.8597 450.392C90.7236 451.701 92.5596 450.859 101.199 444.877C117.399 433.661 142.454 423.006 158.978 420.389C171.073 418.426 199.044 418.893 211.356 421.23C221.724 423.193 241.055 430.39 251.315 436.091C266.11 444.223 277.342 454.505 284.038 465.908C287.602 471.983 295.377 481.143 302.505 487.499C307.689 492.079 308.553 492.546 312.981 492.546C315.789 492.546 319.137 491.799 321.189 490.771C323.565 489.462 324.753 489.275 325.077 490.023C326.265 492.92 327.453 480.115 327.453 464.319C327.453 447.214 327.453 446.84 329.396 448.897L331.34 450.953L330.152 448.71C329.396 447.495 328.748 445.532 328.532 444.317C328.424 443.008 327.453 441.232 326.373 440.204C323.565 437.493 313.521 433.474 310.497 433.848C308.121 434.128 308.229 434.315 312.333 438.241L316.653 442.354L316.977 457.589C317.301 467.59 316.977 473.385 316.113 474.694C314.925 476.75 312.873 477.311 312.873 475.629C312.873 475.068 311.253 472.17 309.201 469.273C302.613 459.926 301.209 455.439 299.913 440.671C298.185 419.454 300.885 404.779 306.717 403.19C308.445 402.723 309.741 403.377 312.333 405.807C315.897 409.079 317.841 412.911 321.189 423.099C322.161 426.277 323.349 428.707 323.565 428.427C324.429 427.773 323.673 409.172 322.809 407.864C322.377 407.303 319.137 404.686 315.681 401.975C310.713 398.33 308.445 397.208 305.745 397.208C301.317 397.208 295.377 401.414 292.138 406.929C289.006 412.163 288.358 422.912 290.626 430.483C291.598 433.661 292.354 436.652 292.246 437.026C292.138 438.895 289.87 432.633 286.846 421.604C285.01 415.154 283.066 409.172 282.634 408.425C281.986 407.49 283.066 405.994 286.09 403.471C290.194 400.012 290.41 399.545 289.762 395.713C289.006 390.572 286.63 386.459 282.202 382.44C278.746 379.169 268.702 373.561 264.598 372.533C262.222 371.878 262.222 371.972 263.734 375.056C264.922 377.486 265.246 382.814 265.03 399.171C264.814 419.454 264.706 420.108 262.654 420.108C260.279 420.108 259.955 417.398 261.467 409.359C262.222 405.247 262.222 405.153 260.279 407.116C259.199 408.238 257.795 409.92 257.147 410.855C256.067 412.444 255.851 412.444 250.991 410.855L245.915 409.172V401.601C245.915 392.909 246.671 391.32 250.343 391.787C252.287 391.974 253.043 392.909 253.799 395.526C255.095 400.48 257.039 400.106 256.175 395.059C254.555 385.899 254.663 385.992 250.991 386.272C247.967 386.459 247.643 386.179 246.779 382.721C245.483 377.86 246.671 369.168 248.507 369.168C250.883 369.168 255.203 373.561 256.715 377.486C258.335 381.973 259.955 381.599 259.955 376.832C259.955 369.915 259.415 369.542 247.535 365.429C234.575 361.036 233.279 360.942 235.547 363.746Z" fill="black"/>
<path d="M55.3008 386.366C48.281 388.329 44.7171 390.198 39.5332 395.059C28.3016 405.434 22.4698 422.538 27.6536 429.735C28.9496 431.418 31.2175 433.287 32.7294 433.848C35.2134 434.876 35.7534 434.783 37.0493 433.194C39.3172 430.483 38.8853 428.333 35.8613 427.679C29.8135 426.371 29.9215 413.285 36.0773 405.153C42.0172 397.395 46.337 393.563 50.9809 391.974C61.0246 388.703 64.4805 392.909 61.8886 405.527C60.9166 410.574 59.9446 412.818 58.1087 413.939C56.4887 415.061 55.6248 416.837 55.0848 420.389C54.6528 423.567 54.8688 425.249 55.6248 425.249C56.2727 425.249 57.1367 424.875 57.4607 424.314C58.8647 422.351 64.2645 426.184 67.0724 431.138C77.8721 450.112 72.7962 476.844 56.7047 487.032C50.4409 490.864 45.6891 490.771 39.7492 486.378C30.7855 479.741 28.4096 470.862 33.4854 463.291C34.9974 461.141 36.6173 457.683 36.9413 455.626C37.3733 453.57 38.2373 451.14 38.7773 450.205C40.8292 446.653 37.5893 448.99 31.7575 455.159C24.1977 463.01 22.3618 466.656 22.3618 473.198C22.3618 488.434 32.0815 496.566 48.173 494.883C61.6726 493.481 72.2563 486.191 79.492 473.572C84.5679 464.693 85.9718 459.739 86.0798 451.701C86.0798 443.756 84.3519 437.306 79.924 428.988C75.7122 420.856 73.0122 418.145 68.6924 417.304C64.9125 416.556 64.9125 416.089 68.1524 410.481C73.9842 400.48 74.2002 392.909 68.8004 387.861C65.4525 384.777 62.4286 384.403 55.3008 386.366Z" fill="black"/>
<path d="M46.8771 401.695L43.9612 404.312V443.382V482.545L47.849 481.985C50.009 481.704 51.9529 481.237 52.1689 481.143C52.2769 480.956 52.7089 462.45 53.0329 439.924C53.5729 401.134 53.5729 399.078 51.7369 399.078C50.6569 399.078 48.497 400.293 46.8771 401.695Z" fill="black"/>
<path d="M144.182 436.185C132.302 444.784 125.067 456.841 122.475 472.451L121.071 480.863L116.751 481.424C101.955 483.667 79.2761 496.379 68.2604 508.717C65.4525 511.708 63.0766 514.699 62.7526 515.353C61.9966 516.942 78.1961 521.896 90.1837 523.859C101.091 525.541 101.523 525.728 100.659 528.719L100.011 531.056L111.135 530.401C122.907 529.747 138.35 527.036 143.75 524.793C148.07 522.924 149.042 523.017 152.066 525.821C159.086 532.364 178.633 539.281 190.081 539.281C203.148 539.281 219.132 534.607 231.875 527.13C244.187 519.839 263.411 502.548 266.542 495.818C272.482 483.013 267.298 468.899 252.287 456.748C244.619 450.392 235.223 444.784 230.256 443.475C229.068 443.102 230.796 444.223 234.035 445.906C240.515 449.177 250.127 455.907 254.771 460.3C256.391 461.795 259.739 466.282 262.331 470.021C266.65 476.563 266.974 477.498 266.974 484.134C266.974 490.584 266.65 491.705 263.843 495.257C258.443 501.987 245.807 506.847 230.904 508.062C222.912 508.717 201.096 506.38 192.997 504.043C185.329 501.8 174.529 497.407 170.965 494.977C169.129 493.855 166.429 492.266 164.917 491.612C162.434 490.49 162.326 490.49 163.73 491.986C164.486 492.827 167.617 494.883 170.425 496.472C173.341 498.061 175.717 499.837 175.717 500.398C175.717 500.959 175.177 500.865 174.421 500.211C173.665 499.557 172.585 499.089 171.937 499.089C171.397 499.089 171.721 499.557 172.693 500.117C173.773 500.585 174.313 501.613 173.989 502.361C173.557 503.295 173.989 503.763 175.177 503.763C176.473 503.763 176.797 504.23 176.257 505.819C175.177 508.717 174.313 509.464 171.613 509.651C170.317 509.651 169.561 509.932 169.777 510.119C169.993 510.306 169.777 511.521 169.237 512.736C167.941 515.54 169.021 515.727 170.317 512.829L171.289 510.773V512.923C171.397 514.138 171.829 514.886 172.369 514.605C172.909 514.231 173.125 514.886 172.801 515.914C172.477 516.942 171.829 517.783 171.289 517.783C170.749 517.783 170.641 517.035 170.965 516.101C171.505 514.792 171.289 514.792 169.777 516.381C168.265 517.97 167.941 518.063 167.077 516.848C166.105 515.633 165.997 515.633 165.997 516.848C165.889 517.97 165.673 517.877 164.809 516.568C163.946 515.259 163.298 515.166 161.57 516.007C157.898 517.596 145.478 514.605 140.402 510.773C130.791 503.669 125.391 489.555 126.579 474.787C127.767 459.272 133.382 446.84 142.886 438.615C149.15 433.1 149.69 432.353 144.182 436.185Z" fill="black"/>
<path d="M336.092 521.054C333.824 523.765 333.5 524.7 334.472 525.728C335.768 527.036 335.228 527.504 333.068 527.223C332.528 527.13 332.312 527.597 332.636 528.252C332.852 528.906 332.204 530.495 331.124 531.71C329.937 532.925 329.073 534.701 329.073 535.636C329.073 536.664 328.425 537.411 327.777 537.411C326.697 537.411 326.697 537.598 327.669 538.159C328.641 538.72 328.425 539.281 326.913 540.496C325.725 541.337 324.753 542.739 324.753 543.487C324.753 544.328 324.321 544.795 323.781 544.515C323.241 544.235 322.593 544.609 322.269 545.263C321.945 546.011 322.161 546.852 322.917 547.132C323.781 547.413 323.781 547.6 322.701 547.6C320.973 547.693 316.869 551.525 317.733 552.273C318.165 552.553 318.813 552.18 319.353 551.432C320.217 550.31 320.433 550.404 320.433 551.993C320.433 553.021 320.109 554.236 319.677 554.61C319.245 554.89 318.813 557.227 318.705 559.657C318.381 567.228 318.381 567.041 317.301 565.452C316.653 564.704 316.437 563.863 316.761 563.489C316.977 563.115 316.869 562.555 316.329 562.274C315.897 562.087 315.465 563.115 315.573 564.611C315.573 566.106 316.005 567.321 316.653 567.321C317.193 567.321 316.869 567.789 315.897 568.35C313.305 569.658 313.737 573.771 316.329 573.117C317.409 572.93 318.273 573.21 318.273 573.771C318.273 574.332 317.841 574.892 317.193 574.892C316.653 574.986 315.681 575.173 315.033 575.266C314.493 575.36 313.521 575.547 312.981 575.64C311.685 575.827 310.713 579.379 311.901 580.033C312.441 580.314 312.873 579.659 312.873 578.631C312.873 576.481 314.601 575.921 315.357 577.79C315.789 579.005 314.169 582.276 312.549 583.305C312.117 583.585 311.793 584.239 311.901 584.707C312.009 585.174 312.009 585.735 311.793 586.015C311.037 587.885 311.037 591.623 311.901 591.623C312.441 591.623 312.981 591.156 312.981 590.689C313.089 590.128 313.197 589.38 313.305 588.913C313.305 588.445 313.845 587.698 314.385 587.23C314.925 586.763 315.141 587.324 314.709 588.632C314.385 589.941 314.817 591.063 315.897 591.717C317.517 592.652 317.517 592.652 315.897 592.184C314.385 591.81 313.953 592.184 313.953 593.867C313.953 595.175 314.601 596.39 315.357 596.671C316.329 597.138 316.329 597.325 315.249 597.792C314.169 598.26 314.169 598.634 315.141 599.755C316.221 600.877 316.221 601.251 315.033 601.905C314.061 602.466 313.197 602.372 312.657 601.625C312.225 601.064 311.577 600.877 311.037 601.251C310.065 602.092 312.873 603.868 314.169 603.213C314.601 602.933 315.033 603.12 315.033 603.681C315.033 604.148 314.601 604.896 313.953 605.176C313.413 605.457 312.873 606.204 312.873 606.672C312.873 607.233 313.305 607.42 313.845 607.046C314.385 606.765 315.249 607.046 315.681 607.607C316.113 608.261 316.005 608.448 315.249 608.074C314.601 607.793 313.737 607.887 313.413 608.448C312.981 609.009 311.685 609.195 310.389 609.009C308.985 608.635 309.309 609.009 311.145 609.756C314.601 611.158 315.357 612.841 314.385 617.514C313.953 619.664 313.089 620.599 311.793 620.599C310.713 620.599 309.633 621.253 309.201 622.001C308.877 622.842 309.201 623.403 310.173 623.403C311.037 623.403 311.793 624.057 311.793 624.805C311.793 625.553 312.225 626.207 312.765 626.207C313.305 626.207 313.953 626.861 314.385 627.609C314.817 628.73 314.385 628.917 312.333 628.45C310.821 628.17 309.633 628.263 309.633 628.824C309.633 629.291 310.497 629.665 311.577 629.572C314.709 629.385 313.953 633.123 310.713 633.497C306.717 633.965 305.637 635.367 309.525 635.086C311.361 634.993 312.549 635.18 312.333 635.554C312.009 636.021 312.333 636.488 313.089 636.675C313.845 636.956 313.953 637.61 313.413 638.264C312.873 639.105 311.253 639.386 308.445 639.012C306.069 638.732 304.233 638.919 304.233 639.479C304.233 639.947 304.665 640.04 305.313 639.76C306.933 638.919 312.117 643.779 311.037 645.087C310.497 645.929 310.065 645.648 309.633 644.246L309.093 642.19L306.717 644.433C305.421 645.742 304.881 646.77 305.313 646.77C306.933 646.77 304.665 650.976 303.045 651.069C302.181 651.163 300.885 651.256 300.237 651.35C299.481 651.35 298.833 652.472 298.833 653.687C298.833 655.463 299.265 655.836 300.993 655.463C302.181 655.182 303.153 654.434 303.153 653.687C303.153 652.939 303.801 652.658 304.773 652.939C305.637 653.313 306.393 654.341 306.393 655.369C306.393 656.771 305.853 657.051 304.017 656.678C302.613 656.397 302.181 656.397 302.937 656.678C304.773 657.425 304.557 658.921 302.613 658.921C301.749 658.921 300.993 658.454 300.993 657.986C300.993 657.425 300.453 657.051 299.913 657.051C299.157 657.051 298.833 658.827 298.941 661.258C299.157 664.529 299.481 665.183 300.669 664.342C301.749 663.594 302.073 663.688 302.073 664.622C302.073 665.464 302.397 665.557 302.937 664.903C303.369 664.342 304.665 663.594 305.853 663.22C307.797 662.66 307.905 662.66 306.285 664.062C305.313 664.903 303.693 665.744 302.613 665.838C299.697 666.211 299.481 667.8 302.289 667.987C303.693 668.081 304.881 668.642 305.097 669.202C305.313 669.67 306.177 670.137 307.041 670.137C307.905 670.137 308.553 670.791 308.553 671.633C308.553 672.567 309.093 672.941 310.281 672.567C311.361 672.193 311.685 672.38 311.145 673.128C310.605 673.876 310.929 673.969 312.117 673.595C314.169 672.941 315.249 675.465 315.357 681.166C315.357 683.036 316.005 684.905 316.545 685.279C317.409 685.746 317.301 686.027 316.437 686.027C315.681 686.027 315.357 687.242 315.573 689.018C315.789 690.7 315.681 691.355 315.465 690.42C315.141 689.579 314.493 688.831 313.953 688.831C313.413 688.831 313.305 689.485 313.629 690.42C314.061 691.261 313.845 691.728 313.305 691.355C312.657 691.074 311.577 691.168 310.713 691.728C309.417 692.383 309.525 692.57 311.253 692.663C312.441 692.757 313.845 692.757 314.277 692.663C314.817 692.57 314.925 692.943 314.493 693.504C314.169 694.065 313.305 694.252 312.765 693.972C312.225 693.598 311.253 694.439 310.605 695.748C309.849 697.056 308.877 697.897 308.445 697.617C308.013 697.43 307.797 698.084 308.013 699.206C308.337 700.795 308.229 701.075 307.365 700.328C305.853 699.019 303.153 699.767 303.585 701.262C303.693 701.916 303.693 702.103 303.477 701.636C303.153 701.262 302.397 701.262 301.857 701.543C301.101 701.916 300.993 701.73 301.425 701.169C301.857 700.514 301.641 699.299 301.101 698.458C300.237 697.15 300.021 697.991 299.913 702.01C299.805 718.647 295.918 736.406 289.762 747.903C286.198 754.633 281.554 759.774 281.554 756.97C281.554 756.128 281.23 756.035 280.69 756.689C279.394 758.372 269.674 760.428 261.359 760.708C252.287 760.989 252.503 761.082 242.351 748.277C236.735 741.173 234.467 739.211 227.556 735.378C219.564 730.892 207.576 726.966 198.288 725.751C184.681 723.882 163.19 725.845 150.014 730.144C141.914 732.761 126.471 740.8 121.611 744.912C119.451 746.688 116.319 750.52 114.699 753.324C113.079 756.128 111.135 758.746 110.487 759.119C109.839 759.493 102.603 759.867 94.3956 759.867C80.032 759.867 79.384 759.774 76.9001 757.53C75.1722 756.128 74.2002 755.755 74.2002 756.596C74.2002 757.25 75.8202 758.652 77.7641 759.68C80.68 761.269 83.7039 761.55 97.7435 761.923C107.895 762.11 114.591 762.671 115.347 763.325C117.507 765.195 109.515 765.756 91.5877 765.101C67.1804 764.167 52.8168 763.139 51.8449 762.297C51.4129 761.83 55.0848 761.83 60.1606 762.204C69.0164 762.765 69.4483 762.765 69.4483 760.895C69.4483 759.774 68.6924 758.839 67.7204 758.839C65.5605 758.652 65.3445 758.652 62.8605 759.4C60.9166 759.961 60.9166 759.867 62.4286 758.746C63.4005 758.091 63.9405 756.596 63.7245 755.381C63.5085 753.792 63.8325 753.418 64.6965 753.885C65.5605 754.352 65.4525 753.885 64.4805 752.857C63.0765 751.455 62.8605 751.361 62.5366 752.577C62.3206 753.418 61.0246 754.259 59.6206 754.446C57.3527 754.82 57.2447 754.726 58.1087 752.67C58.9727 750.707 58.7567 750.24 56.9207 749.866C55.7328 749.586 54.7608 748.744 54.7608 747.903C54.7608 746.688 54.4368 746.782 53.1408 748.277C52.2769 749.212 51.6289 749.586 51.6289 749.118C51.6289 748.557 52.2769 747.342 53.1408 746.408C54.0048 745.379 54.7608 745.099 54.7608 745.66C54.7608 746.314 55.3008 746.782 55.9487 746.782C56.4887 746.782 56.7047 746.408 56.3807 745.847C56.0567 745.379 56.3807 745.193 57.3527 745.473C58.5407 745.847 58.7567 745.473 58.3247 744.071C58.0007 742.949 57.2447 742.108 56.7047 742.108C56.1647 742.108 56.0567 742.482 56.3807 743.043C56.7047 743.51 56.0567 743.977 54.8688 743.977C53.5728 743.977 52.6008 743.51 52.6008 742.949C52.6008 742.482 53.0328 742.295 53.6808 742.575C54.3288 742.856 54.7608 742.295 54.7608 741.173C54.7608 739.865 54.3288 739.397 53.4648 739.958C52.7088 740.332 51.0889 740.8 49.9009 740.986C47.741 741.267 47.741 741.267 49.9009 739.865C51.0889 739.024 52.8168 738.369 53.6808 738.369C54.9768 738.369 54.8688 738.089 53.3568 737.341C51.8449 736.593 50.9809 736.687 49.7929 738.089C48.281 739.678 48.281 739.678 49.2529 737.715C50.7649 735.098 50.7649 733.415 49.2529 734.257C48.389 734.631 48.389 734.257 49.2529 732.855C50.0089 731.733 50.1169 730.892 49.4689 730.892C48.929 730.892 48.173 731.453 47.957 732.013C47.633 732.668 47.309 732.294 47.309 731.172C47.201 730.051 45.905 728.275 44.2851 727.247C42.5572 726.125 42.0172 725.377 42.8811 725.471C43.7451 725.658 45.5811 726.686 46.877 727.807C48.713 729.49 49.2529 729.583 49.7929 728.462C50.1169 727.714 50.0089 727.247 49.5769 727.527C49.037 727.807 47.849 726.966 46.769 725.658C45.5811 724.442 44.0691 723.414 43.2051 723.414C42.1252 723.414 41.8012 722.854 42.2332 721.919C42.5572 721.171 42.4492 720.797 41.8012 721.078C39.9652 722.106 40.6132 720.423 42.6651 719.115C44.3931 717.9 44.3931 717.806 42.4492 718.46C41.0452 718.834 40.6132 718.741 41.1532 717.993C41.5852 717.339 41.2612 716.872 40.1812 716.872C39.2093 716.872 38.7773 716.404 39.1013 715.937C39.4252 715.376 39.2093 715.002 38.6693 715.002C38.0213 715.002 37.4813 714.535 37.4813 713.974C37.4813 713.507 38.0213 713.32 38.5613 713.6C39.2093 713.881 39.6412 713.694 39.6412 713.133C39.6412 712.572 40.1812 712.385 40.9372 712.759C41.6932 713.133 41.8012 713.039 41.3692 712.292C40.9372 711.731 40.0732 711.544 39.4252 711.824C38.5613 712.292 38.4533 711.918 38.8853 710.89C39.4252 709.768 39.2093 709.394 38.3453 709.674C37.5893 709.861 37.0493 710.609 37.2653 711.17C37.3733 711.824 37.0493 712.105 36.5093 711.824C35.9693 711.45 35.3214 711.824 34.9974 712.385C34.7814 713.039 34.5654 712.385 34.5654 710.89C34.5654 709.487 34.7814 708.646 35.2134 709.114C35.5374 709.581 36.8333 709.114 37.9133 708.085C39.9652 706.31 39.9652 706.31 37.6973 706.777C36.0773 707.151 35.3214 706.964 35.3214 706.029C35.3214 705.281 34.5654 704.721 33.7014 704.721C32.8374 704.721 32.0815 704.066 32.0815 703.319C32.0815 702.571 32.7294 702.197 33.5934 702.477C34.6734 702.851 34.8894 702.29 34.5654 700.608C34.2414 699.206 33.2694 698.178 32.1895 698.178C30.7855 698.178 30.7855 697.991 31.9735 697.337C32.8374 696.869 32.9454 696.402 32.2975 696.215C31.6495 696.028 30.6775 693.224 30.0295 689.952C28.5176 681.727 31.2175 676.4 40.1812 670.324C42.8811 668.455 42.9891 668.174 41.3692 666.866C39.4252 665.09 39.2093 663.968 40.7212 663.127C41.3692 662.753 41.1532 661.351 40.1812 659.201C39.3172 657.425 38.8853 655.556 39.2093 655.089C39.5332 654.621 39.4252 653.78 38.9933 653.126C38.5613 652.472 38.1293 651.163 38.0213 650.135C37.9133 649.013 37.4813 647.144 37.0493 645.929C36.4013 644.433 36.5093 643.966 37.3733 644.34C38.0213 644.714 38.5613 644.34 38.5613 643.592C38.5613 642.751 38.1293 642.096 37.5893 642.096C36.7253 642.096 36.9413 637.236 38.0213 634.806C38.2373 634.152 37.5893 633.684 36.4013 633.684C35.2134 633.684 34.2414 633.217 34.2414 632.656C34.2414 632.189 34.6734 631.908 35.1054 632.189C35.6454 632.469 36.0773 632.095 36.0773 631.348C36.0773 630.6 35.6454 630.226 35.1054 630.506C34.6734 630.787 34.2414 628.076 34.2414 624.431C34.2414 618.636 34.0254 617.888 32.4055 618.355C30.5695 618.823 30.5695 618.823 32.4055 617.795C33.3774 617.234 34.0254 616.393 33.7014 615.832C33.2694 615.364 33.7014 614.991 34.4574 614.991C35.5374 614.991 35.5374 614.804 34.3494 614.149C33.2694 613.495 33.0534 612.093 33.4854 608.635C34.1334 603.961 34.1334 603.961 31.2175 604.335C28.9496 604.616 28.6256 604.522 29.9215 603.774C31.3255 602.933 31.3255 602.746 29.9215 601.905C28.5176 601.157 28.5176 600.97 30.1375 600.97C31.1095 600.97 32.1895 601.531 32.4055 602.092C32.7294 602.746 32.9454 600.97 32.9454 598.166C32.8374 593.306 32.8374 593.212 32.1895 596.764L31.4335 600.503L30.8935 596.297C30.2455 591.717 31.8655 586.95 33.3774 589.006C33.8094 589.661 34.2414 586.856 34.2414 582.557C34.2414 577.323 34.6734 574.799 35.6454 574.519C36.2933 574.238 35.9693 573.958 34.7814 573.864L32.6214 573.771L34.7814 572.93C35.9693 572.462 36.2933 572.088 35.4294 572.088C34.2414 571.995 34.2414 571.714 35.3214 570.593C36.4013 569.471 36.4013 568.91 35.2134 567.602C34.1334 566.574 34.1334 566.293 35.1054 566.761C35.7534 567.135 36.4013 566.948 36.4013 566.387C36.4013 565.826 35.7534 565.172 34.9974 564.891C34.1334 564.611 33.4854 563.863 33.4854 563.115C33.4854 561.994 33.8094 561.994 35.2134 562.835C36.2933 563.583 36.1853 563.302 34.8894 561.994C33.8094 560.872 33.1614 559.283 33.4854 558.535C33.9174 557.601 33.5934 557.32 32.5135 557.694C31.7575 557.975 31.0015 557.694 31.0015 557.133C31.0015 556.573 31.5415 556.105 32.1895 556.105C32.8374 556.105 32.9454 555.638 32.4055 554.89C31.3255 553.395 31.2175 549.562 32.2975 550.123C33.3774 550.684 33.4854 549.189 32.4055 548.254C31.9735 547.88 31.5415 545.917 31.4335 543.767C31.3255 541.711 30.2455 538.813 28.9496 537.411C27.7616 535.916 26.4656 533.673 26.0336 532.364C25.0617 528.999 22.7937 527.504 21.8218 529.654C21.1738 531.149 20.9578 531.056 19.5538 528.999C18.2579 526.943 18.0419 536.29 17.8259 604.242C17.6099 716.311 17.6099 721.265 18.9059 729.116C20.6338 738.837 22.3618 743.136 30.7855 756.783C36.5093 766.223 38.7773 769.027 42.2332 770.99L46.553 773.42L37.6973 773.887C29.7055 774.355 26.5736 775.103 27.8696 776.131C28.8416 776.972 57.5687 777.159 210.6 776.878C316.221 776.692 367.951 776.318 367.951 775.663C367.951 775.103 368.383 774.916 368.923 775.196C369.463 775.57 370.219 775.196 370.435 774.635C370.867 773.701 371.083 773.701 371.083 774.542C371.191 775.196 371.623 775.757 372.271 775.757C373.459 775.757 373.135 772.392 371.731 771.364C371.299 770.896 371.191 771.177 371.623 771.738C372.163 772.579 371.407 772.953 369.139 772.953C367.411 772.953 365.683 772.392 365.359 771.738C364.927 771.177 364.927 771.551 365.143 772.672C365.467 774.448 365.251 774.542 363.632 773.607C362.552 773.046 361.796 772.298 362.012 772.018C362.228 771.738 361.472 771.457 360.284 771.457C358.34 771.457 358.34 771.644 359.744 772.579C360.716 773.14 361.148 773.887 360.716 774.168C360.392 774.542 359.312 774.074 358.34 773.14C357.368 772.205 355.532 771.551 354.236 771.644C352.832 771.738 351.752 771.364 351.752 770.99C351.752 770.523 351.212 770.149 350.564 770.149C349.916 770.149 349.592 770.803 350.024 771.551C350.348 772.392 350.024 772.953 349.052 772.953C348.188 772.953 347.432 772.205 347.432 771.27C347.432 770.055 347.216 769.962 346.46 770.99C345.704 772.018 345.488 772.018 344.948 770.99C344.624 769.962 343.976 770.149 342.68 771.551C341.276 773.046 341.06 773.14 341.6 771.738C342.032 770.616 341.708 770.149 340.412 770.149C339.332 770.149 338.9 769.681 339.332 768.934C339.764 768.373 339.224 768.653 338.36 769.588C337.388 770.616 336.632 770.896 336.632 770.336C336.632 769.494 335.66 769.588 332.852 770.523C330.801 771.27 329.181 771.644 329.181 771.27C329.505 769.401 328.857 769.307 326.373 770.71C323.889 772.112 323.673 772.112 323.673 770.616C323.673 769.214 323.457 769.214 322.053 770.523C320.541 771.738 313.953 773.887 311.469 773.887C311.037 773.887 312.765 772.112 315.249 769.868C323.457 762.858 333.392 745.193 337.388 730.892C338.9 725.564 339.116 712.011 339.332 626.768C339.44 572.836 339.224 527.691 339.008 526.382C338.576 524.7 338.036 524.326 336.2 524.7C334.148 525.167 334.04 525.074 335.876 523.952C336.848 523.298 337.712 522.083 337.712 521.335C337.712 520.587 338.252 519.559 339.008 518.905C339.764 518.25 339.98 517.783 339.656 517.783C339.332 517.783 337.712 519.279 336.092 521.054Z" fill="black"/>
<path d="M123.447 553.862C123.123 554.703 123.123 560.405 123.447 566.48L124.203 577.603H133.814C142.454 577.603 143.318 577.416 143.318 575.827C143.318 571.901 142.346 571.341 136.946 571.808L131.762 572.182L131.222 563.209C130.899 558.255 130.467 554.049 130.251 553.862C130.035 553.582 128.523 553.208 127.011 552.834C124.851 552.367 123.987 552.647 123.447 553.862Z" fill="black"/>
<path d="M155.198 564.985V577.603H158.438H161.677V564.985V552.367H158.438H155.198V564.985Z" fill="black"/>
<path d="M174.313 553.021C173.341 553.769 173.341 559.937 174.313 569.845C174.961 577.042 175.177 577.603 177.337 577.603C179.497 577.603 179.821 577.042 180.469 570.873L181.333 564.144L183.601 567.415C184.789 569.191 185.977 570.78 186.085 570.967C186.301 571.154 188.353 569.939 190.837 568.256C193.213 566.667 195.157 565.639 195.265 566.106C195.265 566.48 195.265 569.284 195.157 572.182L195.049 577.603H198.288H201.636V565.546C201.636 558.349 201.204 553.208 200.556 552.834C198.504 551.712 195.697 553.395 191.701 558.068L187.813 562.835L183.385 557.601C179.281 552.834 176.257 551.245 174.313 553.021Z" fill="black"/>
<path d="M214.596 560.685C214.596 565.172 214.92 570.873 215.244 573.304L216 577.603H226.584C237.707 577.603 238.355 577.323 236.627 573.49C236.087 572.369 234.359 571.995 229.068 571.995C222.912 571.995 222.156 571.808 222.156 570.126C222.156 568.63 222.912 568.256 225.828 568.256C231.227 568.256 232.955 567.415 232.955 564.891C232.955 562.835 232.523 562.648 228.204 562.648C223.992 562.648 223.452 562.368 223.02 560.311C222.48 558.068 222.696 557.975 227.664 557.975C234.467 557.975 236.195 557.32 236.195 554.61C236.195 552.367 236.087 552.367 225.396 552.367H214.596V560.685Z" fill="black"/>
<path d="M189.541 632.469C188.569 633.404 187.273 635.18 186.517 636.395L185.221 638.638L182.629 635.928C180.685 633.778 180.145 633.591 180.037 634.806C180.037 635.741 179.497 636.488 178.849 636.488C178.093 636.488 177.877 635.554 178.309 634.152C179.173 631.161 177.121 631.067 175.825 634.058C175.285 635.273 174.637 638.732 174.529 641.723C174.205 646.676 174.421 647.237 176.365 647.237C177.877 647.237 178.525 646.49 178.741 644.433C179.173 640.788 180.685 639.479 181.549 641.91C182.629 644.807 185.113 645.088 187.381 642.564C189.865 639.853 190.837 640.414 190.837 644.62C190.837 647.144 191.269 647.798 192.781 647.518C194.292 647.237 194.616 645.929 194.94 639.012C195.264 631.535 195.048 630.88 193.213 630.88C192.133 630.88 190.405 631.628 189.541 632.469Z" fill="black"/>
</svg>
