<svg width="658" height="647" viewBox="0 0 658 647" fill="none" xmlns="http://www.w3.org/2000/svg">
<path d="M135.5 93.5L88.5 103L156.5 93.5L158.5 97.5V113L163.5 97.5H170.5L186.5 117.5L178 103L170.5 93.5L178 90V82L186.5 57.5L173 82V90L163.5 93.5L158.5 90H150V86L135.5 93.5Z" fill="#1F1D1D" stroke="black"/>
<path d="M448.5 416H441.5L461 394L463 402L468.5 406.5L515.5 413L519 407.5L523.5 406.5L533 366.5H536L531.5 407.5L568.5 409.5L558.5 383.5L550.5 379.5H561L568.5 375L574.5 366.5V356L570 350L579 324.5L574.5 316.5L568.5 319.5V324.5L551.5 330.5V341L542.5 337.5L536 339.5V346.5L526 344.5L529 337.5L520.5 330.5L533 313.5L531.5 327.5L536 332.5H539L547.5 330.5L565.5 316.5L570 288.5L561 280.5L579 258L581.5 265L577 269V274L585 284L582.5 286.5L587 311L631.5 319.5H595.5L585 326L577 352L581.5 370.5L563.5 383.5L574.5 407.5L609.5 421.5L624.5 443.5L643 455L624.5 448L621 449.5V443.5L606 424L601.5 425.5L598.5 421.5L574.5 415L563.5 416L524 413L519 417.5L490 413H483.5H448.5V416Z" fill="#1F1D1D" stroke="black"/>
<path d="M432 446L460 469L440 446L434 442L432 434L427.5 431L431 428L437.5 426.5L434 422L425 431L416 442L432 446Z" fill="#1F1D1D" stroke="black"/>
<path d="M120.5 240.5H112L115.5 234.5H108.5L101.5 240.5L88 234.5H70.5L52.5 224L34.5 220.5L0.5 224L34.5 216L52.5 220.5L57.5 216H64.5L82.5 193.5L84.5 174V168L82.5 163.5V159L62 136L86 157.5V161.5L88 166H93.5L94 169L120.5 181.5L127 179.5L131.5 183L166 181.5L170 169L164.5 163.5L166 152.5V141.5L170 152.5V161.5L173.5 168L176 166V163.5V159H184L186.5 149.5H190L193 138.5L190 131L195 134.5H199L211 138.5L222 131H229L255 126L234 134.5H225.5L223 137L224 140H225.5L282.5 127.5L281 121L288.5 117.5L290 100L286.5 97V94L279.5 82L278.5 67.5L259.5 56.5L279.5 64.5H286.5L284 82L291.5 90.5H297L334 73.5H344L350.5 61L348 31.5L338 18.5V0.5L341.5 18.5L350.5 29.5L354.5 31.5L350.5 35.5L356 63.5L348 76.5L354.5 82L357 90L398 123.5H404L406 127.5H414L417.5 129.5H429.5L425.5 134.5L435 140L442.5 137H455L465.5 144L479.5 142L484 134.5L490 137L495.5 131L498 134.5L502.5 127.5L500 123.5L504.5 121L502.5 104.5L486.5 90L479.5 93L459 85L478 90L484 85L486.5 65.5L502.5 40.5L490 65.5L487.5 85L502.5 100H507V111L510 118.5L512 142L514.5 145.5V152L532 153.5L543 144L564 149.5L574.5 140L568 149.5V154.5L545 148L538 159V172.5L555 181L570.5 177L558 185L553 188.5L554.754 195.515C555.172 195.933 555.591 196.351 556.011 196.771L583 204L602 198.5L630.5 207.5L640 201.5L657.5 198.5L645 203L633.5 210.5V211.5L604 205.5L594 210.5L591 218L596.5 227H614L611.5 230L598 231.5L594 236C579.454 220.67 567.567 208.334 556.011 196.771L555 196.5L554.754 195.515C539.399 180.195 524.479 166.102 504.5 148L398 145.5L389 129.5V127.5V123.5L357 93L353 94L350.5 90V87.5L338 77.5L310 87.5L308.5 93L302.5 91.5L297 98.5L294.5 111L297 117.5L295.5 121L302.5 133.5L325.5 131L329.5 137L369.5 138.5L384.5 131H388L396.5 145.5L203 149.5L161 190H139L128 192.5L122.5 188L114 187L92 174L88 176L85.5 196.5L70.5 214.5L72 218.5L63 220L74.5 229L112 220.5L113 217H122.5L131.5 204L130 197.5L139 196.5V191.5H157L155 196.5L120.5 232.5V240.5Z" fill="#1F1D1D"/>
<path d="M120.5 240.5H112L115.5 234.5H108.5L101.5 240.5L88 234.5H70.5L52.5 224L34.5 220.5L0.5 224L34.5 216L52.5 220.5L57.5 216H64.5L82.5 193.5L84.5 174V168L82.5 163.5V159L62 136L86 157.5V161.5L88 166H93.5L94 169L120.5 181.5L127 179.5L131.5 183L166 181.5L170 169L164.5 163.5L166 152.5V141.5L170 152.5V161.5L173.5 168L176 166V163.5V159H184L186.5 149.5H190L193 138.5L190 131L195 134.5H199L211 138.5L222 131H229L255 126L234 134.5H225.5L223 137L224 140H225.5L282.5 127.5L281 121L288.5 117.5L290 100L286.5 97V94L279.5 82L278.5 67.5L259.5 56.5L279.5 64.5H286.5L284 82L291.5 90.5H297L334 73.5H344L350.5 61L348 31.5L338 18.5V0.5L341.5 18.5L350.5 29.5L354.5 31.5L350.5 35.5L356 63.5L348 76.5L354.5 82L357 90L398 123.5H404L406 127.5H414L417.5 129.5H429.5L425.5 134.5L435 140L442.5 137H455L465.5 144L479.5 142L484 134.5L490 137L495.5 131L498 134.5L502.5 127.5L500 123.5L504.5 121L502.5 104.5L486.5 90L479.5 93L459 85L478 90L484 85L486.5 65.5L502.5 40.5L490 65.5L487.5 85L502.5 100H507V111L510 118.5L512 142L514.5 145.5V152L532 153.5L543 144L564 149.5L574.5 140L568 149.5V154.5L545 148L538 159V172.5L555 181L570.5 177L558 185L553 188.5L555 196.5L583 204L602 198.5L630.5 207.5L640 201.5L657.5 198.5L645 203L633.5 210.5V211.5L604 205.5L594 210.5L591 218L596.5 227H614L611.5 230L598 231.5L594 236C559.564 199.708 540.033 180.194 504.5 148L398 145.5L389 129.5V127.5V123.5L357 93L353 94L350.5 90V87.5L338 77.5L310 87.5L308.5 93L302.5 91.5L297 98.5L294.5 111L297 117.5L295.5 121L302.5 133.5L325.5 131L329.5 137L369.5 138.5L384.5 131H388L396.5 145.5L203 149.5L161 190H139L128 192.5L122.5 188L114 187L92 174L88 176L85.5 196.5L70.5 214.5L72 218.5L63 220L74.5 229L112 220.5L113 217H122.5L131.5 204L130 197.5L139 196.5V191.5H157L155 196.5L120.5 232.5V240.5Z" stroke="black"/>
<path d="M182 316.5L176.5 313.5L173 326.5V310.5L124 294.5H111.5L101 304L90 326.5L93 336.5V343.5V360L86 343.5V339.5V333H72L49.5 351L68 326.5H83H87.5L96 304L109.5 288.5L111.5 272.5L120 264L121 251.5L127.5 247.5L138.5 260.5H134L128.5 267L121 269L116 274V286L118.5 290L153 298.5L157.5 296.5L149.005 276.679L147.478 274.836L138.5 269V264L147.478 274.836L148.5 275.5L149.005 276.679L182 316.5Z" fill="#1F1D1D"/>
<path d="M182 316.5L176.5 313.5L173 326.5V310.5L124 294.5H111.5L101 304L90 326.5L93 336.5V343.5V360L86 343.5V339.5V333H72L49.5 351L68 326.5H83H87.5L96 304L109.5 288.5L111.5 272.5L120 264L121 251.5L127.5 247.5L138.5 260.5H134L128.5 267L121 269L116 274V286L118.5 290L153 298.5L157.5 296.5L148.5 275.5L138.5 269V264L182 316.5Z" stroke="black"/>
<path d="M148.5 403V416V418L145 406.5L140 399.5L120 386.5L146 397.5L151 394V399.5L165 405L148.5 403Z" fill="#1F1D1D" stroke="black"/>
<path d="M340 504.5L346 501L276.5 424V430.5L283.5 437L279.5 453L266 448.5L262 456.5L256 458.5V461L240.5 463L210 470L202 466.5L193.5 451.5L199.5 470L202 472.5L187.5 498L175.5 503L190 501L208.5 476L242.5 465L262 466.5L270 458.5L279.5 463L310 466.5L318 485L321 504.5L322.5 487.5L326 490L330 504.5L332.5 492.5H336L340 504.5Z" fill="#1F1D1D" stroke="black"/>
<path d="M442.5 507.5L426 513.5L441 511L446.5 516L455 511H461.5L470.5 507.5L474 510.5L476.5 507.5L494 511L499 507.5H506L508 504L526 495.5L494 507.5L473 502.5L466 483.5V502.5L459.5 507.5H442.5Z" fill="#1F1D1D" stroke="black"/>
<path d="M366 612L355 646L362.5 612L358 586.5L362.5 577.5L360 560L339 553V545H332V540.5H325.5L307 518.5L327 534.5H332L336.5 524V542H342V545L369.5 553L378.5 545L371.5 557L374 562.5H369.5L362.5 584L366 612Z" fill="#1E1E1E" stroke="black"/>
<path d="M358 508.5L354.5 505L405.5 453.5L403.5 466L373.5 489.5L370 500.5L384 514L381 538.5L378 517L358 508.5Z" fill="#1F1D1D" stroke="black"/>
<path d="M249.5 394L242.5 391.5L241 384.5L235 381L230.5 372L222.5 367L205.5 375.5L202.5 384.5L205.5 403L202.5 407.5L192.5 411L188.5 413.5L190 441.5L184.5 440L165 452L184.5 434.5L183 410L199.5 403L195 381L199.5 372L192.5 358L197 356V342L192.5 337V328L230.5 372L249.5 394Z" fill="#1F1D1D"/>
<path d="M249.5 394L242.5 391.5L241 384.5L235 381L230.5 372L222.5 367L205.5 375.5L202.5 384.5L205.5 403L202.5 407.5L192.5 411L188.5 413.5L190 441.5L184.5 440L165 452L184.5 434.5L183 410L199.5 403L195 381L199.5 372L192.5 358L197 356V342L192.5 337V328L249.5 394Z" stroke="black"/>
</svg>
