<svg width="901" height="332" viewBox="0 0 901 332" fill="none" xmlns="http://www.w3.org/2000/svg">
<rect width="76" height="77" fill="#D9D9D9"/>
<rect x="289" width="76" height="77" fill="#D9D9D9"/>
<rect x="376" width="76" height="77" fill="#D9D9D9"/>
<rect x="463" width="76" height="77" fill="#D9D9D9"/>
<rect x="586" width="76" height="77" fill="#D9D9D9"/>
<rect x="624" y="85" width="76" height="77" fill="#D9D9D9"/>
<rect x="662" y="170" width="76" height="77" fill="#D9D9D9"/>
<rect x="709" y="255" width="76" height="77" fill="#D9D9D9"/>
<rect x="749" y="170" width="76" height="77" fill="#D9D9D9"/>
<rect x="785" y="85" width="76" height="77" fill="#D9D9D9"/>
<rect x="825" width="76" height="77" fill="#D9D9D9"/>
<rect x="289" y="85" width="76" height="77" fill="#D9D9D9"/>
<rect x="289" y="170" width="76" height="77" fill="#D9D9D9"/>
<rect x="376" y="131" width="76" height="77" fill="#D9D9D9"/>
<rect x="463" y="131" width="76" height="77" fill="#D9D9D9"/>
<rect x="289" y="255" width="76" height="77" fill="#D9D9D9"/>
<rect x="376" y="255" width="76" height="77" fill="#D9D9D9"/>
<rect x="463" y="255" width="76" height="77" fill="#D9D9D9"/>
<rect y="85" width="76" height="77" fill="#D9D9D9"/>
<rect y="170" width="76" height="77" fill="#D9D9D9"/>
<rect x="87" width="76" height="77" fill="#D9D9D9"/>
<rect x="174" y="32" width="38" height="45" fill="#D9D9D9"/>
<rect x="174" y="255" width="38" height="45" fill="#D9D9D9"/>
<rect x="87" y="255" width="76" height="77" fill="#D9D9D9"/>
<rect x="174" y="170" width="76" height="77" fill="#D9D9D9"/>
<rect x="174" y="85" width="76" height="77" fill="#D9D9D9"/>
<rect y="255" width="76" height="77" fill="#D9D9D9"/>
</svg>
