<svg width="475" height="359" viewBox="0 0 475 359" fill="none" xmlns="http://www.w3.org/2000/svg">
<path d="M1.5 89.5C88.0771 199.629 138.57 258.722 233.5 357.5C334.881 260.304 387.647 201.734 474 89.5L389 5C270.478 0.16859 204.022 0.216643 85.5 5L1.5 89.5Z" fill="#152151" stroke="#152151"/>
<path d="M19.5 89.5C98.3352 192.171 146.295 245.578 233.5 339C326.028 247.973 375.27 194.111 457 91.5L385 17.5C269.809 12.8126 205.517 12.5683 91.5 17.5L19.5 89.5Z" fill="#9A1717" stroke="black"/>
<path d="M341 40.5H326L335.5 51.5L341 40.5Z" fill="#F4EC43" stroke="black"/>
<path d="M256 104.5C329.561 106.933 361.609 113.285 377.5 147L427 91L389.5 49.5V97H307.5L295.5 72.4999C240.513 13.9577 160.317 48.7944 149 72.4999C150.386 107.296 188.03 106.455 256 104.5Z" fill="#F4EC43" stroke="black"/>
<path d="M145.5 207L117 171.5C259.889 174.815 319.621 178.892 322 197.5C292.021 215.681 272.663 219.729 234 217C203.369 187.106 184.345 182.581 145.5 207Z" fill="#F4EC43" stroke="black"/>
<path d="M96 38.5L43 92.5L75.7703 130C76.0869 82.0043 91.9752 63.2601 137 38.5H96Z" fill="#F4EC43"/>
<path d="M75.7703 130L43 92.5L96 38.5H137C91.9752 63.2601 76.0869 82.0043 75.7703 130ZM75.7703 130L77.4586 131.932" stroke="black"/>
<path d="M191.5 252.5L237.5 301.5L281.5 252.5H191.5Z" fill="#F4EC43" stroke="black"/>
</svg>
